# xmcd CD database file
#
# Track frame offsets:
#	150
#	14715
#	32497
#	48144
#	63660
#
# Disc length: 1097 seconds
#
# Revision: 0
# Processed by: cddbd v1.5.2PL0 Copyright (c) Steve Scherf et al.
# Submitted via: CDex 1.70beta2
#
DISCID=3b044705
DTITLE=Whiffen, Jimmy [CDn-cty-11) Edmonton AB - Bad Guy
DYEAR=2011
DGENRE=Country
TTITLE0=Let's Leave The Light On
TTITLE1=Prayin' The Hell Out Of Me
TTITLE2=One Night Love Affair
TTITLE3=Love Me Tonight
TTITLE4=Bad Guy
EXTD=YEAR: 2011
EXTT0=
EXTT1=
EXTT2=
EXTT3=
EXTT4=
PLAYORDER=
